# Blender v2.79 (sub 0) OBJ File: 'Unicorn Fountain Collision.blend'
# www.blender.org
mtllib Unicorn Fountain Collision.mtl
g #Stone#Environment1#Camera1_me_030026B8_opa.000
v 97.600357 20.000008 -259.000000
v -102.399643 20.000008 -259.000000
v -102.399643 20.000008 20.999969
v -102.399643 180.000000 -259.000000
v -102.399643 180.000000 20.999969
v 97.600357 180.000000 20.999969
v 97.600357 180.000000 -259.000000
v 97.600357 20.000008 20.999969
vt 4.494141 13.500000
vt 4.494141 18.000000
vt 0.000000 18.000000
vt 0.000000 13.500000
vt 18.000000 4.000000
vt 13.500000 4.000000
vt 13.500000 0.000000
vt 18.000000 0.000000
vt -11.500000 4.000000
vt -16.000000 4.000000
vt -16.000000 0.000000
vt -11.500000 0.000000
vt 3.000000 -7.000000
vt 3.000000 -2.500000
vt -1.837891 -2.500000
vt -1.950195 -7.000000
vn 0.0000 1.0000 0.0000
vn 1.0000 0.0000 0.0000
vn -1.0000 0.0000 0.0000
vn 0.0000 -1.0000 0.0000
usemtl mtl_0200D800
s off
f 8/1/1 1/2/1 2/3/1
f 8/1/1 2/3/1 3/4/1
f 4/5/2 5/6/2 3/7/2
f 4/5/2 3/7/2 2/8/2
f 6/9/3 7/10/3 1/11/3
f 6/9/3 1/11/3 8/12/3
f 7/13/4 6/14/4 5/15/4
f 7/13/4 5/15/4 4/16/4
g #ShallowWater_me_03001380_opa.000
v 82.600449 -30.000000 -664.000000
v 114.600449 -30.000000 -717.000000
v 115.600449 -30.000000 -779.000000
v 84.600449 -30.000000 -833.000000
v 31.600445 -30.000000 -865.000000
v -30.399555 -30.000000 -866.000000
v -85.399551 -30.000000 -836.000000
v -116.399551 -30.000000 -782.000000
v -117.399551 -30.000000 -720.000000
v -87.399551 -30.000000 -666.000000
v -33.399555 -30.000000 -634.000000
v 28.600445 -30.000000 -633.000000
v 67.600449 -29.000000 -1002.000000
v -68.399551 -29.000000 -1002.000000
v 184.600449 -29.000000 -934.000000
v 251.600449 -29.000000 -816.000000
v 250.600449 -29.000000 -681.000000
v -185.399551 -29.000000 -935.000000
v -253.399551 -29.000000 -818.000000
v -253.399551 -29.000000 -683.000000
v -186.399551 -29.000000 -565.000000
v -69.399551 -29.000000 -497.000000
v 65.600449 -29.000000 -497.000000
v 183.600449 -29.000000 -564.000000
vt 0.230469 0.030762
vt 0.291992 0.084473
vt 0.291992 0.145996
vt 0.230469 0.199219
vt 0.123535 0.230469
vt 0.000000 0.230469
vt -0.106934 0.199219
vt -0.168457 0.145996
vt -0.168457 0.084473
vt -0.106934 0.030762
vt 0.000000 0.000000
vt 0.123535 0.000000
vt 0.468750 0.000000
vt 0.726074 0.517578
vt -0.293457 0.513184
vt 0.000000 0.000000
vt 0.472656 0.000000
vt 0.731934 0.521973
vt -0.295410 0.517090
vt 0.000000 0.000000
vt 0.476074 0.000000
vt 0.737305 0.525879
vt -0.297852 0.520996
vt 0.000000 0.000000
vt 0.513672 0.000000
vt 0.795410 0.506836
vt -0.321289 0.502441
vt 0.000000 0.000000
vt 0.440430 0.000000
vt 0.682129 0.486328
vt -0.275391 0.481934
vt 0.000000 0.000000
vt 0.000977 0.000000
vt -0.273438 0.498535
vt 0.813477 0.494141
vt 0.500977 0.000000
vt 0.359863 -0.000977
vt 0.096680 0.493652
vt 1.140625 0.491211
vt 0.839844 0.000488
vt 0.000977 0.000000
vt -0.273438 0.511230
vt 0.813477 0.506348
vt 0.500977 0.000000
vt 0.471191 0.000000
vt 0.729980 0.520508
vt -0.294922 0.515625
vt 0.000000 0.000000
vt 0.471680 0.000000
vt 0.730469 0.520996
vt -0.294922 0.516113
vt 0.467285 0.000000
vt 0.723633 0.516113
vt -0.292480 0.511230
vt 0.000000 0.000000
vt 0.467285 0.000000
vt 0.723633 0.516113
vt -0.292480 0.511230
vt 0.000000 0.000000
vn -0.0029 1.0000 -0.0029
vn -0.0040 1.0000 -0.0011
vn -0.0040 1.0000 0.0010
vn -0.0029 1.0000 0.0029
vn -0.0011 1.0000 0.0040
vn 0.0010 1.0000 0.0040
vn 0.0029 1.0000 0.0030
vn 0.0040 1.0000 0.0011
vn 0.0040 1.0000 -0.0010
vn 0.0030 1.0000 -0.0029
vn 0.0011 1.0000 -0.0040
vn -0.0010 1.0000 -0.0040
vn -0.0050 1.0000 -0.0050
vn -0.0068 1.0000 -0.0018
vn -0.0068 1.0000 0.0018
vn -0.0050 1.0000 0.0049
vn -0.0018 1.0000 0.0068
vn 0.0018 1.0000 0.0068
vn 0.0050 1.0000 0.0050
vn 0.0068 1.0000 0.0018
vn 0.0068 1.0000 -0.0018
vn 0.0050 1.0000 -0.0049
vn 0.0018 1.0000 -0.0068
vn -0.0018 1.0000 -0.0068
usemtl mtl_0201D3C0
s 1
f 9/17/5 10/18/6 11/19/7
f 9/17/5 11/19/7 12/20/8
f 9/17/5 12/20/8 13/21/9
f 9/17/5 13/21/9 14/22/10
f 9/17/5 14/22/10 15/23/11
f 9/17/5 15/23/11 16/24/12
f 9/17/5 16/24/12 17/25/13
f 9/17/5 17/25/13 18/26/14
f 9/17/5 18/26/14 19/27/15
f 9/17/5 19/27/15 20/28/16
f 9/29/5 32/30/17 25/31/18
f 9/29/5 25/31/18 10/32/6
f 10/33/6 25/34/18 24/35/19
f 10/33/6 24/35/19 11/36/7
f 11/37/7 24/38/19 23/39/20
f 11/37/7 23/39/20 12/40/8
f 12/41/8 23/42/20 21/43/21
f 12/41/8 21/43/21 13/44/9
f 13/45/9 21/46/21 22/47/22
f 13/45/9 22/47/22 14/48/10
f 14/49/10 22/50/22 26/51/23
f 14/49/10 26/51/23 15/52/11
f 15/53/11 26/54/23 27/55/24
f 15/53/11 27/55/24 16/56/12
f 16/57/12 27/58/24 28/59/25
f 16/57/12 28/59/25 17/60/13
f 17/61/13 28/62/25 29/63/26
f 17/61/13 29/63/26 18/64/14
f 18/65/14 29/66/26 30/67/27
f 18/65/14 30/67/27 19/27/15
f 19/68/15 30/69/27 31/70/28
f 19/68/15 31/70/28 20/71/16
f 20/72/16 31/73/28 32/74/17
f 20/72/16 32/74/17 9/75/5
g #Stone#IgnoreProjectiles_fountain.002
v 29.819210 -29.999994 -688.149292
v -80.141556 -29.999983 -767.741028
v 43.767361 -29.999971 -823.174072
v -34.189182 -29.999994 -688.149292
v -48.137310 -29.999971 -823.174072
v 75.771606 -29.999983 -767.741028
v 29.819210 64.964142 -688.149292
v -80.141556 64.964149 -767.741028
v 43.767361 64.964165 -823.174072
v -34.189182 64.964142 -688.149292
v -48.137310 64.964165 -823.174072
v 75.771606 64.964149 -767.741028
vt -1.578051 1.976555
vt 0.243653 3.008207
vt 0.243653 3.008207
vt 0.243314 -2.008207
vt -1.578051 -0.959085
vt -1.578051 -0.959085
vt 2.797581 1.537295
vt 2.794670 -0.555331
vt 2.794670 -0.555331
vt 0.243314 -2.008207
vt -1.578051 1.976555
vt 0.243653 3.008207
vt 2.797581 1.537295
vt 0.243653 3.008207
vn -0.8660 0.0000 -0.5000
vn 0.0000 0.0000 1.0000
vn 0.8660 0.0000 -0.5000
vn 0.8660 0.0000 0.5000
vn -0.8660 0.0000 0.5000
vn 0.0000 0.0000 -1.0000
usemtl None
s off
f 34/76/29 43/77/29 37/78/29
f 33/79/30 42/80/30 36/81/30
f 35/82/31 44/83/31 38/84/31
f 38/84/32 39/85/32 33/79/32
f 34/76/33 42/80/33 40/86/33
f 43/77/34 35/87/34 37/78/34
f 34/76/29 40/86/29 43/77/29
f 33/79/30 39/85/30 42/80/30
f 35/82/31 41/88/31 44/83/31
f 38/84/32 44/83/32 39/85/32
f 34/76/33 36/81/33 42/80/33
f 43/77/34 41/89/34 35/87/34
g Dirt#Exit0#Environment1#Camera1_me_03002318_opa.001
v -102.399643 20.000000 21.000000
v -102.399643 180.000000 21.000000
v 97.600357 180.000000 21.000000
v 97.600357 20.000000 93.000000
v 97.600357 20.000000 21.000000
v 73.600357 20.000000 567.000000
v 97.600357 180.000000 93.000000
v -79.399643 20.000000 567.000000
v -102.399643 20.000000 93.000000
v 73.600357 143.000000 567.000000
v -79.399643 143.000000 567.000000
v -102.399643 180.000000 93.000000
vt 1.000000 0.000000
vt 0.000000 0.000000
vt 0.000000 1.113281
vt 1.000000 1.113281
vt 0.000000 1.000000
vt 1.000000 1.000000
vt 1.000000 0.000000
vt 0.000000 0.000000
vt 0.000000 0.000000
vt 1.000000 0.000000
vt 1.000000 1.177246
vt 0.000000 1.177246
vt 1.000000 1.000000
vt 0.000000 1.000000
vt 3.618164 0.000000
vt 0.000000 1.004395
vt 0.000000 0.000000
vt -1.933594 1.000488
vt 0.950195 0.000000
vt 0.950195 1.000488
vt -1.933594 0.000000
vt 0.012695 1.000000
vt 3.270508 1.000000
vt 3.257812 0.000000
vt 0.000000 0.000000
vt 1.310547 1.002930
vt -2.301758 1.002930
vt -2.301758 0.000000
vt 1.310547 0.000000
vt 3.618164 1.004395
vn 0.0000 1.0000 0.0000
vn 1.0000 0.0000 0.0000
vn 0.0000 -1.0000 0.0000
vn -1.0000 0.0000 0.0000
vn -0.9987 0.0000 -0.0506
vn 0.0000 -0.9970 -0.0778
vn 0.9988 0.0000 -0.0485
usemtl mtl_02008000
s off
f 48/90/35 49/91/35 45/92/35
f 48/90/35 45/92/35 53/93/35
f 46/94/36 56/95/36 53/96/36
f 46/94/36 53/96/36 45/97/36
f 47/98/37 51/99/37 56/100/37
f 47/98/37 56/100/37 46/101/37
f 51/102/38 47/103/38 49/91/38
f 51/102/38 49/91/38 48/90/38
usemtl mtl_02009000
f 50/104/39 51/105/39 48/106/39
f 52/107/35 48/108/35 53/109/35
f 52/107/35 50/110/35 48/108/35
f 51/111/40 54/112/40 55/113/40
f 51/111/40 55/113/40 56/114/40
f 56/115/41 55/116/41 52/117/41
f 56/115/41 52/117/41 53/118/41
f 50/104/39 54/119/39 51/105/39
g #Stone_me_030026B8_opa.002
v -134.399551 10.000000 -379.000000
v -134.399551 180.000000 -379.000000
v 132.600449 10.000000 -379.000000
v 97.600449 10.000000 -379.000000
v 97.600449 180.000000 -379.000000
v 132.600449 180.000000 -379.000000
v -134.399551 210.000000 -379.000000
v 132.600449 210.000000 -379.000000
v 97.600357 20.000008 -259.000000
v -102.399643 20.000008 -259.000000
v 97.600357 20.000008 -379.000000
v -102.399643 180.000000 -259.000000
v 97.600357 180.000000 -259.000000
v -102.399643 180.000000 -379.000000
v -102.399551 20.000008 -379.000000
v -102.399551 10.000008 -379.000000
v -13.951237 20.744446 -678.265625
v -11.597996 -30.000000 -693.797119
v 9.581264 20.744446 -678.265625
v -13.951237 20.744446 -717.329590
v -11.597996 -30.000000 -717.329590
v 9.581264 20.744446 -717.329590
v 7.228024 -30.000000 -717.329590
v 50.171993 -29.999969 -800.785461
v 74.211853 20.744469 -790.209412
v 59.585003 -29.999985 -784.481689
v 62.445614 20.744469 -810.589355
v 40.381680 20.744461 -770.677490
v 39.205044 -29.999985 -772.715454
v 28.615414 20.744469 -791.057129
v 29.792049 -29.999985 -789.019165
v -78.581818 20.744469 -790.209412
v -66.815582 20.744469 -810.589355
v -54.541965 -29.999969 -800.785461
v -63.954960 -29.999985 -784.481689
v -32.985401 20.744469 -791.057129
v -34.162022 -29.999985 -789.019165
v -44.751644 20.744461 -770.677490
v -43.575024 -29.999985 -772.715454
v 28.572170 14.147675 -690.936768
v -77.103989 14.147690 -767.427246
v 41.976833 14.147697 -820.700317
v -13.079700 1.951027 -684.017822
v 7.228024 -30.000000 -693.797119
v 8.709728 1.951027 -684.017822
v -62.269833 1.951050 -806.958435
v -73.164551 1.951050 -788.088257
v 68.794479 1.951042 -788.088135
v 57.899776 1.951042 -806.958374
v -32.942142 14.147675 -690.936768
v -46.346783 14.147697 -820.700317
v 72.734039 14.147690 -767.427246
v -78.581818 84.278328 -790.209412
v -66.815582 84.278328 -810.589355
v 74.211853 84.278328 -790.209412
v 62.445614 84.278328 -810.589355
v -32.985401 84.278328 -791.057129
v 40.381680 84.278320 -770.677490
v -13.951237 84.278297 -678.265625
v 9.581264 84.278297 -678.265625
v 28.615414 84.278328 -791.057129
v 9.581264 84.278305 -717.329590
v -13.951237 84.278305 -717.329590
v -44.751644 84.278320 -770.677490
v -13.951237 59.283817 -678.265625
v 9.581264 59.283817 -678.265625
v -13.079700 40.490395 -678.265625
v 8.709728 40.490395 -678.265625
v -13.951237 59.283817 -658.552002
v 9.581264 59.283817 -658.552002
v 8.709728 40.490395 -658.552002
v -13.079700 40.490395 -658.552002
v -78.581818 53.136299 -790.209412
v -66.815582 53.136307 -810.589355
v -66.815582 25.286880 -810.589294
v -77.710297 25.286873 -791.719116
v -92.913666 53.136307 -798.483887
v -81.147430 53.136307 -818.863770
v -81.147430 25.286880 -818.863770
v -92.042145 25.286865 -799.993591
v 74.211853 72.280228 -790.209412
v 62.445614 72.280228 -810.589355
v 73.340317 53.486801 -791.719116
v 62.445614 53.486801 -810.589294
v 81.667007 72.280228 -794.513611
v 69.900772 72.280228 -814.893555
v 80.795471 53.486801 -796.023315
v 69.900772 53.486801 -814.893494
v 67.600449 -29.000000 -1001.999939
v 99.600449 10.000008 -1120.000000
v -99.399551 10.000008 -1121.000000
v -68.399551 -29.000000 -1001.999939
v 184.600449 -29.000000 -933.999939
v 270.600433 10.000008 -1019.999939
v 251.600449 -29.000000 -816.000000
v 369.600433 10.000008 -848.000000
v 250.600449 -29.000000 -681.000000
v 369.600433 10.000008 -649.000000
v -271.399567 10.000008 -1021.999939
v -185.399551 -29.000000 -934.999939
v -371.399567 10.000008 -850.000000
v -253.399551 -29.000000 -818.000000
v -372.399567 10.000008 -651.000000
v -253.399551 -29.000000 -683.000000
v -273.399567 10.000008 -479.000000
v -186.399551 -29.000000 -565.000000
v -102.399551 10.000008 -379.000000
v -69.399551 -29.000000 -497.000000
v 97.600449 10.000008 -379.000000
v 65.600449 -29.000000 -497.000000
v 269.600433 10.000008 -477.000000
v 183.600449 -29.000000 -564.000000
v 99.600449 210.000000 -1120.000000
v -99.399551 210.000000 -1121.000000
v 270.600433 210.000000 -1019.999939
v 369.600433 210.000000 -848.000000
v 369.600433 210.000000 -649.000000
v -271.399567 210.000000 -1021.999939
v -371.399567 210.000000 -850.000000
v -372.399567 210.000000 -651.000000
v -273.399567 210.000000 -479.000000
v -102.399551 210.000000 -379.000000
v 97.600449 210.000000 -379.000000
v 269.600433 210.000000 -477.000000
vt 1.037581 -2.746252
vt -0.832339 -0.137197
vt 1.037581 -0.137197
vt 1.621713 -2.746252
vt -0.248208 -2.746252
vt -0.248208 -2.746252
vt -3.383488 -2.746252
vt -1.513568 -0.137197
vt -1.513568 -2.746252
vt -2.107913 5.144101
vt -0.237993 7.753156
vt -0.237993 5.144101
vt -0.832339 -2.746252
vt -2.097698 -0.137197
vt 4.172861 -0.137197
vt 2.302941 -2.746252
vt 2.302941 -0.137197
vt 2.897287 5.144101
vt 1.027366 7.753156
vt 2.897287 7.753156
vt 1.027366 0.846852
vt -0.237993 3.455907
vt 1.027366 3.455907
vt -0.248208 -0.137197
vt -0.248208 -7.043504
vt -1.513568 -4.434449
vt -0.248208 -4.434449
vt -1.513568 -4.434449
vt -0.248208 -4.434449
vt 0.072973 -1.842460
vt 0.994246 -0.033668
vt 0.005754 -0.033668
vt 0.072973 -1.842460
vt 0.994246 -0.033668
vt 0.005754 -0.033668
vt 0.005754 -0.033668
vt 0.927028 -1.842460
vt 0.994246 -0.033668
vt 1.037581 -0.137197
vt 2.302941 1.550999
vt 2.302941 -0.137197
vt -1.513568 -2.746252
vt -0.237993 5.144101
vt 1.027366 3.455907
vt -0.237993 3.455907
vt -3.383488 -2.746252
vt -2.107913 5.144101
vt -0.832339 -0.137197
vt 1.027366 5.144101
vt 1.027366 5.144101
vt 4.172861 -0.137197
vt 1.621713 -2.746252
vt -3.383488 -0.137197
vt -2.107913 7.753156
vt -2.097698 -2.746252
vt 4.172861 -2.746252
vt -0.237993 0.846852
vt 1.621713 -0.137197
vt -1.513568 -7.043504
vt 0.927028 -1.842460
vt 0.927028 -1.842460
vt 0.072973 -1.842460
vt 1.037581 1.550999
vt -2.097698 -0.137197
vt 2.897287 5.144101
vt 0.000000 0.000000
vt 1.000000 0.000000
vt 1.000000 1.995605
vt 0.000000 1.995605
vt 0.000000 0.000000
vt 1.000000 0.000000
vt 1.000000 1.999512
vt 0.000000 1.999512
vt 0.000000 1.993164
vt 0.000000 0.000000
vt 1.000000 0.000000
vt 1.000000 1.993164
vt -0.033784 1.030254
vt 1.033784 1.030254
vt 1.033784 1.030254
vt -0.033784 1.030254
vt -0.033784 1.030254
vt -0.033784 1.030254
vt 1.033784 1.030254
vt -0.033784 1.030254
vt -0.033784 1.030254
vt 0.994246 -0.033668
vt -0.033784 1.030254
vt 1.033784 1.030254
vt -0.033784 1.030254
vt 0.994246 -0.033668
vt 1.033784 1.030254
vt 0.005754 -0.033668
vt 0.005754 -0.033668
vt 0.994246 -0.033668
vt -0.033784 1.030254
vt 1.033784 1.030254
vt -0.033784 1.030254
vt 0.994246 -0.033668
vt 1.033784 1.030254
vt 0.005754 -0.033668
vt 0.005754 -0.033668
vt 1.033784 1.030254
vt 0.005754 -0.033668
vt -0.033784 1.030254
vt 1.033784 1.030254
vt 0.005754 -0.033668
vt 0.994246 -0.033668
vt 0.994246 -0.033668
vt -0.033784 1.030254
vt 1.033784 1.030254
vt 1.033784 1.030254
vt 1.033784 1.030254
vt -1.350902 0.030787
vt 1.484706 0.030787
vt 1.484706 0.030787
vt 1.484706 0.030787
vt -1.350902 0.030787
vt -1.350902 0.030787
vt 4.494141 18.000000
vt 4.494141 20.000000
vt 0.000000 20.000000
vt 0.000000 18.000000
vt -16.000000 4.000000
vt -18.005354 0.000000
vt -16.000000 0.000000
vt -1.987305 -9.005355
vt 3.000000 -7.000000
vt -1.950195 -7.000000
vt 20.005354 0.000000
vt 18.000000 4.000000
vt 18.000000 0.000000
vt -18.005354 4.000000
vt 20.005354 4.000000
vt 3.000000 -9.005355
vt 4.002930 1.000000
vt -0.998047 1.000000
vt -0.998047 0.750000
vt 4.002930 0.750000
vt 0.682129 0.486328
vt 0.898926 0.916992
vt -0.508301 0.910156
vt -0.275391 0.481934
vt 0.795410 0.506836
vt 1.048340 0.981934
vt -0.592773 0.975098
vt -0.321289 0.502441
vt 0.737305 0.525879
vt 0.971680 0.991211
vt -0.549316 0.984375
vt -0.297852 0.520996
vt 0.731934 0.521973
vt 0.964355 0.983887
vt -0.544922 0.976562
vt -0.295410 0.517090
vt -0.273438 0.498535
vt -0.520020 0.965332
vt 1.077637 0.958984
vt 0.813477 0.494141
vt 0.096680 0.493652
vt -0.139160 0.956543
vt 1.395020 0.953125
vt 1.140625 0.491211
vt -0.273438 0.511230
vt -0.520020 0.989746
vt 1.077637 0.982910
vt 0.813477 0.506348
vt 0.729980 0.520508
vt 0.961914 0.981445
vt -0.543945 0.974609
vt -0.294922 0.515625
vt 0.730469 0.520996
vt 0.962402 0.981934
vt -0.537598 0.979004
vt -0.294922 0.516113
vt 0.723633 0.516113
vt 0.963867 0.975098
vt -0.539551 0.965820
vt -0.292480 0.511230
vt 0.723633 0.516113
vt 0.954102 0.973145
vt -0.539551 0.966309
vt -0.292480 0.511230
vt 0.726074 0.517578
vt 0.957031 0.976074
vt -0.541016 0.968750
vt -0.293457 0.513184
vt 1.077637 0.982910
vt -0.549316 0.984375
vt -0.544922 0.976562
vt -0.539551 0.966309
vt -0.592773 0.975098
vt -0.508301 0.910156
vt 1.395020 0.953125
vt -0.537598 0.979004
vt -0.541016 0.968750
vt -0.543945 0.974609
vt 1.077637 0.958984
vt -0.520020 0.989746
vt 0.971680 0.991211
vt 0.964355 0.983887
vt 0.954102 0.973145
vt 1.048340 0.981934
vt 0.898926 0.916992
vt -0.139160 0.956543
vt 0.962402 0.981934
vt 0.957031 0.976074
vt 0.961914 0.981445
vt -0.520020 0.965332
vn -0.4995 -0.0463 0.8651
vn -0.5000 0.0000 -0.8660
vn 0.4995 -0.0463 0.8651
vn -0.9989 -0.0463 0.0000
vn 0.8660 -0.0000 0.5000
vn 0.4995 -0.0463 -0.8651
vn 0.9989 -0.0463 0.0000
vn 0.0000 0.0000 -1.0000
vn -0.4995 -0.0463 -0.8651
vn -0.8660 -0.0000 0.5000
vn 0.0000 -0.2927 0.9562
vn -0.8281 -0.2927 -0.4781
vn 0.8281 -0.2927 -0.4781
vn 0.0000 1.0000 0.0000
vn 0.5000 0.0000 0.8660
vn -1.0000 0.0000 0.0000
vn -0.5000 0.0000 0.8660
vn 1.0000 0.0000 0.0000
vn 0.5000 0.0000 -0.8660
vn 0.8660 0.0000 -0.5000
vn 0.0000 0.0000 1.0000
vn -0.8660 0.0000 -0.5000
vn 0.0000 -1.0000 0.0000
vn -0.4990 -0.0625 0.8643
vn 0.4979 -0.0924 0.8623
vn -0.0795 0.9528 0.2929
vn -0.2207 0.5475 0.8072
vn 0.2140 0.5478 0.8087
vn 0.0783 0.9531 0.2922
vn -0.2173 0.9523 0.2142
vn -0.5938 0.5475 0.5895
vn -0.2945 0.9525 0.0767
vn -0.8082 0.5479 0.2158
vn -0.2921 0.9532 -0.0780
vn -0.8077 0.5480 -0.2175
vn 0.5901 0.5478 0.5929
vn 0.2142 0.9527 0.2153
vn 0.8072 0.5477 0.2198
vn 0.2929 0.9528 0.0795
vn 0.8086 0.5480 -0.2142
vn 0.2921 0.9532 -0.0776
vn 0.5936 0.5481 -0.5892
vn 0.2159 0.9528 -0.2133
vn 0.2917 0.7292 -0.6189
vn 0.0783 0.9529 -0.2930
vn -0.2854 0.7299 -0.6211
vn -0.0774 0.9526 -0.2940
vn -0.5890 0.5475 -0.5943
vn -0.2136 0.9529 -0.2152
vn 0.9667 0.0000 -0.2557
vn -0.7095 0.0000 0.7046
vn -0.9661 0.0000 0.2582
vn -0.7040 0.0000 -0.7102
vn -0.2639 0.0000 0.9645
vn 0.2557 0.0000 0.9667
vn 0.9649 0.0000 0.2627
vn 0.5048 0.0000 -0.8632
vn -0.9655 0.0000 -0.2603
vn 0.7095 0.0000 -0.7046
vn 0.7056 0.0000 0.7086
vn -0.4950 0.0000 -0.8689
usemtl mtl_02007000
s off
f 91/120/42 94/121/42 88/122/42
f 86/123/43 112/124/43 83/125/43
f 84/126/44 82/127/44 81/128/44
f 76/129/45 74/130/45 73/131/45
f 95/132/46 92/133/46 94/121/46
f 92/134/47 90/135/47 89/136/47
f 78/137/48 100/138/48 79/139/48
f 79/140/49 76/141/49 78/142/49
f 80/143/50 86/123/50 83/125/50
f 87/144/51 84/145/51 86/146/51
f 86/146/51 114/147/51 117/148/51
f 74/149/52 101/150/52 99/151/52
f 90/152/53 103/153/53 102/154/53
f 104/155/54 80/156/54 105/157/54
f 109/158/55 113/159/55 110/160/55
f 117/148/55 111/161/55 112/124/55
f 115/162/55 118/163/55 119/164/55
f 81/128/56 114/165/56 84/126/56
f 73/131/57 119/166/57 76/129/57
f 76/141/49 118/163/49 78/142/49
f 92/133/46 120/167/46 94/121/46
f 94/121/58 109/158/58 88/122/58
f 78/137/59 116/168/59 75/169/59
f 89/136/60 113/170/60 92/134/60
f 91/120/42 95/132/42 94/121/42
f 86/123/43 117/171/43 112/124/43
f 84/126/44 85/172/44 82/127/44
f 76/129/45 77/173/45 74/130/45
f 95/132/46 93/174/46 92/133/46
f 92/134/47 93/175/47 90/135/47
f 78/137/48 75/169/48 100/138/48
f 79/140/49 77/176/49 76/141/49
f 80/143/50 87/177/50 86/123/50
f 87/144/51 85/178/51 84/145/51
f 86/146/51 84/145/51 114/147/51
f 74/149/52 100/179/52 101/150/52
f 90/152/53 91/180/53 103/153/53
f 104/155/54 82/181/54 80/156/54
f 109/158/55 120/182/55 113/159/55
f 117/148/55 114/147/55 111/161/55
f 115/162/55 116/168/55 118/163/55
f 81/128/56 111/161/56 114/165/56
f 73/131/57 115/162/57 119/166/57
f 76/141/49 119/164/49 118/163/49
f 92/133/46 113/183/46 120/167/46
f 94/121/58 120/167/58 109/158/58
f 78/137/59 118/184/59 116/168/59
f 89/136/60 110/160/60 113/170/60
usemtl mtl_02007000_RGBA16_02007000.png
f 72/185/49 57/186/49 58/187/49
f 72/185/49 58/187/49 70/188/49
f 59/189/49 60/190/49 61/191/49
f 59/189/49 61/191/49 62/192/49
f 62/193/49 58/194/49 63/195/49
f 62/193/49 63/195/49 64/196/49
usemtl mtl_02007000_Fountain_Triforce_00.png
f 73/197/52 101/150/52 75/198/52
f 83/199/61 111/200/61 81/201/61
f 89/202/53 103/153/53 88/203/53
f 83/199/54 104/155/54 105/157/54
f 75/198/62 115/204/62 73/197/62
f 88/203/63 110/205/63 89/202/63
f 124/206/49 121/207/49 122/208/49
f 125/209/62 127/210/62 126/211/62
f 121/207/45 128/212/45 125/209/45
f 121/207/55 126/211/55 122/208/55
f 124/206/64 128/212/64 123/213/64
f 122/208/48 127/210/48 124/206/48
f 132/214/46 130/215/46 129/216/46
f 134/217/63 136/218/63 133/219/63
f 131/220/60 134/217/60 130/215/60
f 132/214/64 135/221/64 131/220/64
f 132/214/65 133/219/65 136/218/65
f 130/215/55 133/219/55 129/216/55
f 138/222/51 139/223/51 137/224/51
f 142/225/61 143/226/61 144/227/61
f 138/222/43 144/227/43 140/228/43
f 137/224/55 142/225/55 138/222/55
f 139/223/66 141/229/66 137/224/66
f 139/223/64 144/227/64 143/226/64
f 73/197/52 99/151/52 101/150/52
f 83/199/61 112/230/61 111/200/61
f 89/202/53 102/154/53 103/153/53
f 83/199/54 81/201/54 104/155/54
f 75/198/62 116/231/62 115/204/62
f 88/203/63 109/232/63 110/205/63
f 124/206/49 123/213/49 121/207/49
f 125/209/62 128/212/62 127/210/62
f 121/207/45 123/213/45 128/212/45
f 121/207/55 125/209/55 126/211/55
f 124/206/64 127/210/64 128/212/64
f 122/208/48 126/211/48 127/210/48
f 132/214/46 131/220/46 130/215/46
f 134/217/63 135/221/63 136/218/63
f 131/220/60 135/221/60 134/217/60
f 132/214/64 136/218/64 135/221/64
f 132/214/65 129/216/65 133/219/65
f 130/215/55 134/217/55 133/219/55
f 138/222/51 140/228/51 139/223/51
f 142/225/61 141/229/61 143/226/61
f 138/222/43 142/225/43 144/227/43
f 137/224/55 141/229/55 142/225/55
f 139/223/66 143/226/66 141/229/66
f 139/223/64 140/228/64 144/227/64
usemtl mtl_02007000_NONE
f 96/233/55 107/234/55 106/235/55
f 96/233/55 108/236/55 98/237/55
f 98/237/55 107/234/55 96/233/55
f 107/234/55 97/238/55 106/235/55
usemtl mtl_0200D800
f 65/239/55 67/240/55 71/241/55
f 65/239/55 71/241/55 66/242/55
f 69/243/57 67/244/57 65/245/57
f 70/246/64 69/247/64 68/248/64
f 71/249/59 68/250/59 66/251/59
f 69/243/57 61/252/57 67/244/57
f 71/249/59 70/253/59 68/250/59
f 70/246/64 61/254/64 69/247/64
usemtl mtl_02008010
f 71/255/49 67/256/49 60/257/49
f 71/255/49 60/257/49 72/258/49
usemtl mtl_0201D3C0
s 1
f 145/259/67 146/260/68 147/261/69
f 145/259/67 147/261/69 148/262/70
f 149/263/71 150/264/72 146/265/68
f 149/263/71 146/265/68 145/266/67
f 151/267/73 152/268/74 150/269/72
f 151/267/73 150/269/72 149/270/71
f 153/271/75 154/272/76 152/273/74
f 153/271/75 152/273/74 151/274/73
f 148/275/70 147/276/69 155/277/77
f 148/275/70 155/277/77 156/278/78
f 156/279/78 155/280/77 157/281/79
f 156/279/78 157/281/79 158/282/80
f 158/283/80 157/284/79 159/285/81
f 158/283/80 159/285/81 160/286/82
f 160/287/82 159/288/81 161/289/83
f 160/287/82 161/289/83 162/290/84
f 162/291/84 161/292/83 163/293/85
f 162/291/84 163/293/85 164/294/86
f 164/295/86 163/296/85 165/297/87
f 164/295/86 165/297/87 166/298/88
f 166/299/88 165/300/87 167/301/89
f 166/299/88 167/301/89 168/302/90
f 168/303/90 167/304/89 154/305/76
f 168/303/90 154/305/76 153/306/75
f 157/284/79 176/307/91 159/285/81
f 152/268/74 171/308/92 150/269/72
f 154/272/76 172/309/93 152/273/74
f 165/300/87 180/310/94 167/301/89
f 150/264/72 169/311/95 146/265/68
f 146/260/68 170/312/96 147/261/69
f 155/280/77 175/313/97 157/281/79
f 161/292/83 178/314/98 163/293/85
f 167/304/89 173/315/99 154/305/76
f 159/288/81 177/316/100 161/289/83
f 147/276/69 174/317/101 155/277/77
f 157/284/79 175/318/97 176/307/91
f 152/268/74 172/319/93 171/308/92
f 154/272/76 173/320/99 172/309/93
f 165/300/87 179/321/102 180/310/94
f 150/264/72 171/322/92 169/311/95
f 146/260/68 169/323/95 170/312/96
f 155/280/77 174/324/101 175/313/97
f 161/292/83 177/325/100 178/314/98
f 167/304/89 180/326/94 173/315/99
f 159/288/81 176/327/91 177/316/100
f 147/276/69 170/328/96 174/317/101
